<svg width="247" height="167" viewBox="0 0 247 167" fill="none" xmlns="http://www.w3.org/2000/svg">
<ellipse cx="22" cy="67" rx="100" ry="100" fill="#D3BFF9" fill-opacity="0.83"/>
<path d="M121.5 67C121.5 121.952 76.9523 166.5 22 166.5C-32.9523 166.5 -77.5 121.952 -77.5 67C-77.5 12.0477 -32.9523 -32.5 22 -32.5C76.9523 -32.5 121.5 12.0477 121.5 67Z" stroke="#D3BFF9" stroke-opacity="0.8"/>
<ellipse cx="147" cy="10" rx="100" ry="100" fill="#D3BFF9" fill-opacity="0.83"/>
<path d="M246.5 10C246.5 64.9523 201.952 109.5 147 109.5C92.0477 109.5 47.5 64.9523 47.5 10C47.5 -44.9523 92.0477 -89.5 147 -89.5C201.952 -89.5 246.5 -44.9523 246.5 10Z" stroke="#D3BFF9" stroke-opacity="0.8"/>
</svg>
