<svg width="333" height="192" viewBox="0 0 333 192" fill="none" xmlns="http://www.w3.org/2000/svg">
<g clip-path="url(#clip0_13_161)">
<path d="M170.79 45.5777H169.289V16.7086C169.289 12.2772 166.78 8.02728 162.313 4.89382C157.847 1.76035 151.789 -7.62721e-06 145.472 -7.62721e-06H58.2861C55.1584 -4.30664e-05 52.0613 0.432102 49.1717 1.27175C46.2821 2.1114 43.6565 3.34212 41.4448 4.89363C39.2332 6.44514 37.4788 8.28706 36.2818 10.3142C35.0848 12.3414 34.4687 14.5141 34.4687 16.7083V175.087C34.4687 177.281 35.0847 179.454 36.2817 181.481C37.4786 183.508 39.2329 185.35 41.4445 186.901C43.6562 188.453 46.2817 189.684 49.1713 190.523C52.061 191.363 55.158 191.795 58.2857 191.795H145.471C151.788 191.795 157.846 190.035 162.312 186.901C166.779 183.768 169.288 179.518 169.288 175.087V66.1272H170.788L170.79 45.5777Z" fill="#3F3D56"/>
<path d="M164.432 15.5894V176.205C164.431 179.565 162.529 182.787 159.143 185.163C155.756 187.539 151.164 188.875 146.375 188.876H57.3998C52.6087 188.876 48.0136 187.542 44.625 185.166C41.2364 182.789 39.332 179.566 39.3306 176.205V15.5894C39.332 12.2284 41.2363 9.00544 44.6247 6.62935C48.0131 4.25326 52.6081 2.91867 57.399 2.9191H68.1922C67.6622 3.83339 67.4605 4.82501 67.6048 5.8068C67.7491 6.78859 68.2349 7.7305 69.0196 8.54972C69.8042 9.36894 70.8638 10.0404 72.105 10.5051C73.3462 10.9698 74.7311 11.2134 76.138 11.2147H126.864C128.271 11.2134 129.656 10.9698 130.897 10.5051C132.138 10.0404 133.198 9.36894 133.983 8.54972C134.767 7.7305 135.253 6.78859 135.397 5.8068C135.542 4.82501 135.34 3.83339 134.81 2.9191H146.371C151.16 2.91967 155.753 4.25443 159.14 6.62993C162.527 9.00543 164.43 12.2272 164.432 15.587V15.5894Z" fill="white"/>
<path d="M143.777 154.419H61.6065C58.6512 154.416 55.8179 153.592 53.7282 152.126C51.6385 150.659 50.463 148.672 50.4597 146.599V65.5035C50.4597 45.8138 73.2932 29.795 101.36 29.795H143.777C146.733 29.7973 149.566 30.622 151.656 32.088C153.745 33.554 154.921 35.5416 154.924 37.6148V146.599C154.921 148.672 153.745 150.659 151.656 152.126C149.566 153.592 146.733 154.416 143.777 154.419Z" fill="#E6E6E6"/>
<path d="M56.6844 173.939C59.9516 173.939 62.6001 172.081 62.6001 169.789C62.6001 167.497 59.9516 165.639 56.6844 165.639C53.4172 165.639 50.7686 167.497 50.7686 169.789C50.7686 172.081 53.4172 173.939 56.6844 173.939Z" fill="#E6E6E6"/>
<path d="M148.816 173.939C152.083 173.939 154.732 172.081 154.732 169.789C154.732 167.497 152.083 165.639 148.816 165.639C145.549 165.639 142.9 167.497 142.9 169.789C142.9 172.081 145.549 173.939 148.816 173.939Z" fill="#E6E6E6"/>
<path d="M149.618 154.259L145.95 157.063L128.79 148.474L134.203 144.335L149.618 154.259Z" fill="#FFB6B6"/>
<path d="M154.427 156.038L142.602 165.078L142.439 164.973C141.109 164.117 140.318 162.925 140.241 161.659C140.163 160.394 140.805 159.159 142.026 158.225L142.026 158.225L142.4 155.424L148.216 153.493L149.248 152.704L154.427 156.038Z" fill="#2F2E41"/>
<path d="M152.016 185.547L146.592 185.547L144.011 170.869L152.017 170.87L152.016 185.547Z" fill="#FFB6B6"/>
<path d="M153.399 189.235L135.909 189.235V189.08C135.91 187.813 136.627 186.598 137.903 185.703C139.18 184.807 140.911 184.304 142.717 184.304H142.717L145.912 182.604L151.873 184.304L153.399 184.304L153.399 189.235Z" fill="#2F2E41"/>
<path d="M125.822 111.454C125.822 111.454 92.6874 133.898 113.635 140.845H120.109C120.109 140.845 122.055 135.996 126.509 131.906C127.121 131.345 129.412 131.459 130.049 130.911C133.935 127.57 138.147 124.7 141.057 124.814L142.961 140.31L142.021 144.852C141.43 147.712 141.586 150.623 142.481 153.443L141.818 171.571L153.436 171.576C153.436 171.576 153.906 167.327 154.298 162.014C154.403 160.59 155.276 159.598 155.36 158.083C155.56 154.45 154.896 150.222 154.768 147.257L163.527 114.66L125.822 111.454Z" fill="#2F2E41"/>
<path d="M141.127 63.9007L135.724 68.9711L122.775 74.3143L130.391 88.208L130.68 98.5455L129.971 99.7925L130.772 101.835C130.772 101.835 130.402 104.225 128.432 105.999C124.988 109.102 119.729 112.474 125.059 113.324C133.438 114.66 163.145 117.599 164.669 115.194C165.196 114.363 165.13 110.845 164.819 106.6C164.761 105.806 163.511 104.942 163.438 104.11C163.383 103.486 164.508 102.899 164.447 102.266C163.767 95.2102 162.764 87.9411 162.764 87.9411L165.746 68.4884L153.821 66.3295L152.482 63.9352L141.127 63.9007Z" fill="#BE9FF6"/>
<path d="M112.044 139.512L113.815 141.082C113.815 141.082 130.104 149.076 130.663 149.823L133.237 151.532L139.466 146.861L136.227 144.013C133.635 141.734 130.286 139.935 126.473 138.774L121.508 135.684L112.044 139.512Z" fill="#2F2E41"/>
<path d="M122.394 117.073L125.36 96.9308L126.143 88.6409L117.841 87.5877C117.841 87.5877 116.597 93.2866 115.51 96.631C114.436 99.9312 116.94 116.631 117.006 117.071C116.396 117.454 115.966 117.957 115.773 118.515C115.58 119.072 115.633 119.658 115.925 120.194C116.216 120.73 116.733 121.192 117.407 121.517C118.08 121.843 118.879 122.017 119.697 122.017C120.515 122.018 121.313 121.844 121.987 121.519C122.661 121.194 123.179 120.733 123.471 120.197C123.763 119.661 123.817 119.075 123.625 118.517C123.432 117.96 123.003 117.456 122.394 117.073Z" fill="#FFB9B9"/>
<path d="M111.667 100.315L125.999 102.867L125.9 100.045L126.988 99.2352L129.161 91.248L132.279 86.5692L131.469 70.5692L123.549 73.516L123.539 73.5212C122.156 74.5885 120.999 75.79 120.105 77.0887C117.119 81.3468 114.251 90.7258 112.75 96.1732C112.698 96.2875 112.599 96.3881 112.464 96.462C111.719 96.9416 111.233 97.5869 111.088 98.2888C110.943 98.9907 111.147 99.7062 111.667 100.315L111.667 100.315Z" fill="#BE9FF6"/>
<path d="M196.78 105.457C196.78 105.457 179.332 92.5522 179.169 92.3089C177.95 85.8157 174.445 82.9515 173.919 83.2624L164.871 85.4614C164.871 85.4614 167.563 91.4402 169.385 94.9914C171.126 98.3848 191.193 106.673 191.528 107.082C191.168 107.639 191.058 108.26 191.212 108.862C191.366 109.463 191.777 110.018 192.39 110.453C193.003 110.887 193.79 111.181 194.646 111.294C195.502 111.408 196.388 111.337 197.185 111.091C197.982 110.844 198.654 110.433 199.111 109.913C199.569 109.392 199.79 108.787 199.746 108.176C199.702 107.565 199.395 106.979 198.866 106.493C198.336 106.008 197.609 105.646 196.78 105.457H196.78Z" fill="#FFB9B9"/>
<path d="M157.565 68.9324C157.565 68.9324 166.447 65.8787 169.892 71.8764C171.78 75.2624 176.61 83.48 179.017 88.5385C179.033 88.5707 179.055 88.6012 179.083 88.6293C179.727 89.3003 180.074 90.0897 180.082 90.8986C180.081 90.9575 180.09 91.0163 180.108 91.0738C180.108 91.0738 170.347 92.4077 167.444 95.9968L166.293 95.1202L166.088 94.506L157.668 78.7432L157.565 68.9324Z" fill="#BE9FF6"/>
<path d="M302.611 93.4112H198.626C197.699 93.4104 196.811 93.1519 196.156 92.6922C195.5 92.2326 195.132 91.6094 195.131 90.9594V80.2753C195.132 79.6253 195.5 79.0022 196.156 78.5426C196.811 78.0829 197.699 77.8244 198.626 77.8236H302.611C303.538 77.8244 304.426 78.0829 305.081 78.5426C305.736 79.0022 306.105 79.6253 306.106 80.2753V90.9594C306.105 91.6094 305.736 92.2326 305.081 92.6922C304.426 93.1519 303.538 93.4104 302.611 93.4112Z" fill="#E6E6E6"/>
<path d="M292.508 91.7575H200.983C200.057 91.7567 199.169 91.4982 198.513 91.0385C197.858 90.5789 197.49 89.9557 197.489 89.3057V81.9304C197.49 81.2804 197.858 80.6572 198.513 80.1976C199.169 79.738 200.057 79.4794 200.983 79.4787H300.254C301.181 79.4794 302.069 79.738 302.724 80.1976C303.379 80.6572 303.748 81.2804 303.749 81.9304V83.8715C303.745 85.9622 302.56 87.9667 300.453 89.4451C298.345 90.9235 295.488 91.7551 292.508 91.7575Z" fill="white"/>
<path d="M260.937 84.8574H219.143C218.904 84.8574 218.675 84.7908 218.506 84.6722C218.337 84.5536 218.242 84.3928 218.242 84.2251C218.242 84.0574 218.337 83.8966 218.506 83.778C218.675 83.6594 218.904 83.5928 219.143 83.5928H260.937C261.176 83.5928 261.405 83.6594 261.575 83.778C261.744 83.8966 261.838 84.0574 261.838 84.2251C261.838 84.3928 261.744 84.5536 261.575 84.6722C261.405 84.7908 261.176 84.8574 260.937 84.8574Z" fill="#BE9FF6"/>
<path d="M282.094 87.4435H219.143C218.904 87.4435 218.675 87.3769 218.506 87.2583C218.337 87.1397 218.242 86.9789 218.242 86.8112C218.242 86.6435 218.337 86.4827 218.506 86.3641C218.675 86.2455 218.904 86.1789 219.143 86.1789H282.094C282.333 86.1789 282.562 86.2455 282.732 86.3641C282.901 86.4827 282.996 86.6435 282.996 86.8112C282.996 86.9789 282.901 87.1397 282.732 87.2583C282.562 87.3769 282.333 87.4435 282.094 87.4435Z" fill="#E6E6E6"/>
<path d="M302.611 116.08H198.626C197.699 116.079 196.811 115.82 196.156 115.361C195.5 114.901 195.132 114.278 195.131 113.628V102.944C195.132 102.294 195.5 101.671 196.156 101.211C196.811 100.751 197.699 100.493 198.626 100.492H302.611C303.538 100.493 304.426 100.751 305.081 101.211C305.736 101.671 306.105 102.294 306.106 102.944V113.628C306.105 114.278 305.736 114.901 305.081 115.361C304.426 115.82 303.538 116.079 302.611 116.08Z" fill="#E6E6E6"/>
<path d="M292.508 114.426H200.983C200.057 114.425 199.169 114.167 198.513 113.707C197.858 113.247 197.49 112.624 197.489 111.974V104.599C197.49 103.949 197.858 103.326 198.513 102.866C199.169 102.406 200.057 102.148 200.983 102.147H300.254C301.181 102.148 302.069 102.406 302.724 102.866C303.379 103.326 303.748 103.949 303.749 104.599V106.54C303.745 108.631 302.56 110.635 300.453 112.114C298.345 113.592 295.488 114.424 292.508 114.426Z" fill="white"/>
<path d="M260.937 107.526H219.143C219.025 107.526 218.907 107.51 218.798 107.478C218.689 107.446 218.589 107.399 218.506 107.341C218.422 107.282 218.355 107.212 218.31 107.136C218.265 107.059 218.242 106.977 218.242 106.894C218.242 106.811 218.265 106.728 218.31 106.652C218.355 106.575 218.422 106.505 218.506 106.446C218.589 106.388 218.689 106.341 218.798 106.309C218.907 106.278 219.025 106.261 219.143 106.261H260.937C261.176 106.261 261.405 106.328 261.575 106.446C261.744 106.565 261.838 106.726 261.838 106.894C261.838 107.061 261.744 107.222 261.575 107.341C261.405 107.459 261.176 107.526 260.937 107.526Z" fill="#BE9FF6"/>
<path d="M282.094 110.112H219.143C219.025 110.112 218.907 110.096 218.798 110.064C218.689 110.032 218.589 109.985 218.506 109.927C218.422 109.868 218.355 109.798 218.31 109.722C218.265 109.645 218.242 109.563 218.242 109.48C218.242 109.397 218.265 109.314 218.31 109.238C218.355 109.161 218.422 109.091 218.506 109.033C218.589 108.974 218.689 108.927 218.798 108.896C218.907 108.864 219.025 108.847 219.143 108.847H282.094C282.333 108.847 282.562 108.914 282.732 109.033C282.901 109.151 282.996 109.312 282.996 109.48C282.996 109.647 282.901 109.808 282.732 109.927C282.562 110.045 282.333 110.112 282.094 110.112Z" fill="#E6E6E6"/>
<path d="M302.611 138.748H198.626C197.699 138.747 196.811 138.489 196.156 138.029C195.5 137.57 195.132 136.946 195.131 136.296V125.612C195.132 124.962 195.5 124.339 196.156 123.88C196.811 123.42 197.699 123.161 198.626 123.161H302.611C303.538 123.161 304.426 123.42 305.081 123.88C305.736 124.339 306.105 124.962 306.106 125.612V136.296C306.105 136.946 305.736 137.57 305.081 138.029C304.426 138.489 303.538 138.747 302.611 138.748Z" fill="#E6E6E6"/>
<path d="M292.508 137.094H200.983C200.057 137.094 199.169 136.835 198.513 136.376C197.858 135.916 197.49 135.293 197.489 134.643V127.267C197.49 126.617 197.858 125.994 198.513 125.535C199.169 125.075 200.057 124.816 200.983 124.816H300.254C301.181 124.816 302.069 125.075 302.724 125.535C303.379 125.994 303.748 126.617 303.749 127.267V129.208C303.745 131.299 302.56 133.304 300.453 134.782C298.345 136.261 295.488 137.092 292.508 137.094Z" fill="white"/>
<path d="M260.937 130.194H219.143C218.904 130.194 218.675 130.128 218.506 130.009C218.337 129.891 218.242 129.73 218.242 129.562C218.242 129.394 218.337 129.234 218.506 129.115C218.675 128.996 218.904 128.93 219.143 128.93H260.937C261.176 128.93 261.405 128.996 261.575 129.115C261.744 129.234 261.838 129.394 261.838 129.562C261.838 129.73 261.744 129.891 261.575 130.009C261.405 130.128 261.176 130.194 260.937 130.194Z" fill="#BE9FF6"/>
<path d="M282.094 132.78H219.143C218.904 132.78 218.675 132.714 218.506 132.595C218.337 132.477 218.242 132.316 218.242 132.148C218.242 131.98 218.337 131.82 218.506 131.701C218.675 131.582 218.904 131.516 219.143 131.516H282.094C282.333 131.516 282.562 131.582 282.732 131.701C282.901 131.82 282.996 131.98 282.996 132.148C282.996 132.316 282.901 132.477 282.732 132.595C282.562 132.714 282.333 132.78 282.094 132.78Z" fill="#E6E6E6"/>
<path d="M146.82 62.2731C152.826 62.2731 157.695 58.8572 157.695 54.6435C157.695 50.4298 152.826 47.0139 146.82 47.0139C140.813 47.0139 135.944 50.4298 135.944 54.6435C135.944 58.8572 140.813 62.2731 146.82 62.2731Z" fill="#FFB9B9"/>
<path d="M138.823 59.5503C138.693 59.5507 138.563 59.536 138.44 59.5069C137.954 59.3576 137.548 59.1046 137.28 58.7839C135.408 56.8947 134.504 54.3758 134.593 51.2971C134.631 49.9946 134.841 48.3294 136.142 47.0019C137.235 45.8858 139.447 45 141.508 45.4446C141.484 45.1555 141.576 44.8674 141.772 44.6126C141.969 44.3578 142.262 44.1463 142.62 44.0016C143.4 43.6662 144.34 43.6044 145.169 43.5498C147.263 43.4121 149.427 43.2698 151.547 43.5516C153.923 43.8679 155.867 44.7273 156.878 45.9096L156.899 45.9467L157.105 46.6473C157.132 46.7414 157.189 46.8303 157.27 46.9077C157.351 46.9851 157.456 47.0493 157.576 47.0957C157.696 47.1422 157.829 47.1698 157.965 47.1767C158.102 47.1837 158.239 47.1697 158.367 47.1359C158.507 47.0989 158.659 47.0882 158.807 47.1048C158.954 47.1214 159.093 47.1647 159.21 47.2305C159.326 47.2963 159.417 47.3822 159.471 47.4799C159.526 47.5776 159.543 47.6836 159.522 47.7875L159.465 48.0661L160.063 47.9877C160.212 47.9681 160.366 47.9767 160.51 48.0126C160.653 48.0485 160.78 48.1104 160.878 48.1919C160.976 48.2735 161.042 48.3719 161.068 48.477C161.094 48.5822 161.081 48.6903 161.028 48.7905L160.859 49.1109C160.983 49.1115 161.105 49.1298 161.218 49.1648C161.331 49.1997 161.433 49.2506 161.517 49.3143C161.638 49.4055 161.714 49.5215 161.735 49.6452C161.755 49.769 161.718 49.8941 161.63 50.0022C160.962 50.8037 160.014 51.4728 158.876 51.9463C158.254 52.2089 157.573 52.3966 156.863 52.5017C152.253 53.1997 147.499 53.2999 142.838 52.7975C143.114 53.4426 143.22 54.1174 143.151 54.7892C143.002 55.6291 142.299 56.3222 141.36 56.5549C141.146 56.6037 140.928 56.6408 140.706 56.6657C140.494 56.6889 140.284 56.7245 140.081 56.7722C139.779 56.85 139.512 56.9823 139.306 57.1557C139.1 57.3291 138.963 57.5375 138.909 57.7598C138.855 57.9822 138.885 58.2107 138.997 58.4222C139.108 58.6338 139.298 58.8209 139.545 58.9648L140.008 58.6263L139.858 59.0566C139.826 59.1403 139.77 59.2185 139.693 59.286C139.616 59.3535 139.519 59.4089 139.409 59.4485C139.229 59.516 139.028 59.5509 138.823 59.5503Z" fill="#2F2E41"/>
<path d="M290.113 174.752L290.553 167.811C295.14 166.091 300.256 165.182 305.457 165.164C298.299 169.27 299.193 177.184 294.34 182.705C292.808 184.419 290.745 185.869 288.305 186.947C285.866 188.026 283.111 188.706 280.246 188.936L274.256 191.509C273.434 188.294 273.615 184.993 274.787 181.832C275.959 178.671 278.094 175.726 281.044 173.2C282.719 171.794 284.64 170.542 286.762 169.473C288.196 172.127 290.113 174.752 290.113 174.752Z" fill="#F2F2F2"/>
<path d="M333 191.679C333 191.721 332.988 191.763 332.966 191.802C332.943 191.841 332.909 191.876 332.866 191.906C332.824 191.936 332.773 191.96 332.718 191.976C332.662 191.992 332.602 192 332.542 192H0.457762C0.336356 192 0.219927 191.966 0.13408 191.906C0.0482335 191.846 0 191.764 0 191.679C0 191.594 0.0482335 191.512 0.13408 191.452C0.219927 191.392 0.336356 191.358 0.457762 191.358H332.542C332.602 191.358 332.662 191.366 332.718 191.382C332.773 191.398 332.824 191.422 332.866 191.452C332.909 191.481 332.943 191.517 332.966 191.556C332.988 191.595 333 191.637 333 191.679Z" fill="#CCCCCC"/>
</g>
<defs>
<clipPath id="clip0_13_161">
<rect width="333" height="192" fill="white"/>
</clipPath>
</defs>
</svg>
