<svg width="326" height="276" viewBox="0 0 326 276" fill="none" xmlns="http://www.w3.org/2000/svg">
<g clip-path="url(#clip0_9_2)">
<path d="M174.06 38.6632C184.857 30.6878 200.057 27.6304 211.95 33.8524C198.561 39.6658 187.66 50.0277 181.175 63.1049C178.692 68.1573 176.457 74.0353 171.335 76.3704C168.148 77.8234 164.386 77.5428 161.086 76.3696C157.785 75.1963 154.849 73.2032 151.955 71.2311L151.086 71.1266C156.238 58.732 163.264 46.6387 174.06 38.6632Z" fill="#F0F0F0"/>
<path d="M211.854 34.1172C200.75 34.4651 190.037 38.3032 181.238 45.0862C179.318 46.5128 177.634 48.2331 176.25 50.1839C174.962 52.1278 174.219 54.381 174.097 56.7092C173.94 58.8778 174.03 61.1143 173.348 63.2069C172.983 64.2729 172.397 65.2497 171.628 66.0732C170.86 66.8968 169.925 67.5486 168.887 67.9857C166.328 69.1424 163.506 69.3105 160.74 69.379C157.67 69.4551 154.479 69.4854 151.687 70.9312C151.349 71.1064 151.097 70.5712 151.434 70.3963C156.293 67.8808 161.97 69.522 167.076 68.0249C169.459 67.3264 171.646 65.9055 172.602 63.5283C173.439 61.4495 173.348 59.1431 173.488 56.946C173.574 54.6729 174.215 52.4555 175.355 50.4872C176.636 48.4723 178.25 46.6899 180.129 45.2165C184.305 41.832 188.988 39.1252 194.006 37.1953C199.72 34.961 205.774 33.7206 211.906 33.5278C212.286 33.516 212.232 34.1055 211.854 34.1172V34.1172Z" fill="#E4E4E4"/>
<path d="M183.943 42.7353C183.005 41.1045 182.678 39.1935 183.019 37.3436C183.36 35.4937 184.348 33.8253 185.806 32.6364C186.101 32.3969 186.488 32.8453 186.191 33.0852C184.832 34.1897 183.912 35.7439 183.598 37.4672C183.283 39.1905 183.595 40.9694 184.477 42.4828C184.669 42.8119 184.133 43.0625 183.943 42.7353V42.7353Z" fill="#E4E4E4"/>
<path d="M174.032 55.5992C177.736 56.6343 181.693 56.2356 185.116 54.4824C185.455 54.3084 185.707 54.8436 185.368 55.0174C181.803 56.8351 177.684 57.2417 173.833 56.156C173.465 56.0523 173.667 55.496 174.032 55.5992Z" fill="#E4E4E4"/>
<path d="M199.692 35.7449C199.923 36.4515 200.326 37.0896 200.865 37.6018C201.404 38.1141 202.062 38.4845 202.779 38.6798C203.147 38.7788 202.945 39.335 202.579 39.2367C201.788 39.0172 201.062 38.6072 200.465 38.0426C199.869 37.4779 199.419 36.7758 199.157 35.9974C199.126 35.9261 199.123 35.8458 199.149 35.7726C199.176 35.6995 199.229 35.6391 199.298 35.6037C199.369 35.5706 199.45 35.5669 199.524 35.5933C199.598 35.6198 199.658 35.6742 199.692 35.7449H199.692Z" fill="#E4E4E4"/>
<path d="M221.38 78.3098C221.148 78.2545 220.917 78.1992 220.681 78.1471C217.563 77.4198 214.391 76.947 211.196 76.7334C210.949 76.713 210.699 76.696 210.452 76.6827C202.75 76.2502 195.034 77.2514 187.697 79.6356C184.778 80.587 181.936 81.759 179.195 83.1416C175.41 85.0512 171.458 87.4229 167.383 87.9549C166.958 88.0152 166.531 88.0491 166.102 88.0565L151.026 72.1938C151.01 72.1405 150.99 72.0905 150.974 72.0371L150.343 71.4313C150.479 71.3501 150.622 71.2688 150.759 71.1877C150.838 71.1402 150.92 71.0964 150.999 71.0489C151.053 71.0184 151.106 70.9881 151.153 70.9575C151.171 70.9473 151.189 70.9373 151.203 70.9305C151.25 70.8999 151.297 70.8764 151.34 70.8493C152.139 70.3928 152.942 69.9412 153.751 69.4944C153.754 69.491 153.754 69.4909 153.761 69.491C159.929 66.1023 166.434 63.1987 173.173 61.3747C173.376 61.3199 173.582 61.2614 173.792 61.2139C176.834 60.4086 179.937 59.8532 183.069 59.5534C184.785 59.3948 186.508 59.3231 188.231 59.3387C192.683 59.3874 197.1 60.1362 201.319 61.5574C209.73 64.3919 217.141 69.8849 221.085 77.709C221.185 77.9093 221.283 78.1061 221.38 78.3098Z" fill="#F0F0F0"/>
<path d="M221.145 78.4654C212.069 72.0574 201.204 68.672 190.095 68.7902C187.703 68.7731 185.323 69.1333 183.043 69.8573C180.845 70.6344 178.895 71.9859 177.396 73.7715C175.965 75.4082 174.69 77.2482 172.886 78.5086C171.953 79.14 170.897 79.5671 169.787 79.7618C168.677 79.9564 167.539 79.9143 166.446 79.6382C163.707 79.0209 161.352 77.4561 159.103 75.8458C156.606 74.0579 154.04 72.1612 150.94 71.6344C150.564 71.5705 150.685 70.9914 151.06 71.0552C156.454 71.9718 159.999 76.7004 164.977 78.5794C167.3 79.4562 169.902 79.6382 172.097 78.3161C174.016 77.16 175.332 75.2637 176.767 73.5939C178.204 71.8306 180.051 70.446 182.146 69.5609C184.382 68.7232 186.744 68.2719 189.131 68.2266C194.504 68.0389 199.872 68.697 205.04 70.1769C210.948 71.8332 216.529 74.4879 221.541 78.0261C221.851 78.2453 221.453 78.6832 221.145 78.4655L221.145 78.4654Z" fill="#E4E4E4"/>
<path d="M193.67 68.5416C193.903 66.675 194.792 64.952 196.179 63.6804C197.565 62.4089 199.358 61.6715 201.238 61.5999C201.618 61.5868 201.657 62.1773 201.276 62.1904C199.525 62.2538 197.855 62.9409 196.566 64.1276C195.278 65.3143 194.456 66.9226 194.249 68.662C194.204 69.04 193.625 68.9174 193.67 68.5416H193.67Z" fill="#E4E4E4"/>
<path d="M178.012 72.846C180.346 75.9022 183.746 77.9666 187.534 78.6274C187.91 78.6926 187.789 79.2717 187.414 79.2066C183.473 78.5116 179.939 76.3561 177.517 73.1703C177.287 72.8665 177.783 72.5438 178.012 72.846V72.846Z" fill="#E4E4E4"/>
<path d="M210.453 72.4422C210.213 73.1456 210.15 73.8978 210.272 74.6313C210.394 75.3647 210.696 76.0564 211.151 76.6443C211.386 76.945 210.89 77.2674 210.657 76.9686C210.157 76.3168 209.824 75.5525 209.688 74.7425C209.551 73.9325 209.615 73.1013 209.874 72.3218C209.893 72.2462 209.939 72.1805 210.004 72.1379C210.069 72.0953 210.148 72.079 210.224 72.0924C210.301 72.1087 210.368 72.1546 210.411 72.2201C210.454 72.2856 210.469 72.3654 210.453 72.4422V72.4422Z" fill="#E4E4E4"/>
<path d="M171.212 50.5283H170.044V18.5235C170.044 16.091 169.564 13.6822 168.634 11.4349C167.703 9.1875 166.338 7.14548 164.618 5.42541C162.898 3.70535 160.856 2.34092 158.609 1.41002C156.361 0.47913 153.953 1.31139e-06 151.52 0H83.7136C81.2811 -5.24536e-06 78.8723 0.479113 76.625 1.41C74.3776 2.34089 72.3356 3.70531 70.6155 5.42537C68.8954 7.14544 67.531 9.18745 66.6001 11.4348C65.6692 13.6822 65.1901 16.0909 65.1901 18.5235V194.104C65.1901 199.017 67.1416 203.729 70.6155 207.202C74.0893 210.676 78.8008 212.628 83.7135 212.628H151.52C156.433 212.628 161.144 210.676 164.618 207.202C168.092 203.729 170.044 199.017 170.044 194.104V73.3099H171.212V50.5283Z" fill="#3F3D56"/>
<path d="M152.267 4.81918H143.416C143.823 5.8171 143.979 6.89979 143.869 7.9719C143.759 9.04401 143.387 10.0726 142.786 10.9671C142.185 11.8616 141.373 12.5946 140.422 13.1014C139.471 13.6082 138.409 13.8733 137.332 13.8734H98.4861C97.4084 13.8733 96.3472 13.6082 95.3961 13.1014C94.445 12.5946 93.6331 11.8616 93.0319 10.9671C92.4308 10.0726 92.0588 9.04401 91.9488 7.9719C91.8389 6.89979 91.9942 5.81708 92.4013 4.81917H84.1344C80.4657 4.81917 76.9471 6.27658 74.3529 8.8708C71.7587 11.465 70.3013 14.9835 70.3013 18.6523V193.975C70.3013 195.792 70.6591 197.591 71.3543 199.269C72.0494 200.947 73.0684 202.472 74.3529 203.757C75.6374 205.041 77.1624 206.06 78.8407 206.756C80.519 207.451 82.3178 207.809 84.1344 207.809H152.267C154.084 207.809 155.883 207.451 157.561 206.756C159.239 206.06 160.764 205.041 162.049 203.757C163.333 202.472 164.352 200.947 165.048 199.269C165.743 197.591 166.101 195.792 166.101 193.975V18.6523C166.101 14.9835 164.643 11.465 162.049 8.8708C159.455 6.27659 155.936 4.81918 152.267 4.81918Z" fill="#E4E4E4"/>
<path d="M119.51 151.488C114.493 151.493 109.524 150.508 104.888 148.59C100.252 146.672 96.0391 143.859 92.4913 140.311C88.9436 136.764 86.1303 132.551 84.2125 127.915C82.2946 123.279 81.3099 118.31 81.3146 113.293C81.3074 106.247 83.2518 99.3379 86.932 93.3303C90.6122 87.3228 95.8844 82.452 102.164 79.258C106.716 76.9422 111.685 75.5608 116.779 75.1952C121.873 74.8296 126.989 75.4872 131.825 77.1292C140.39 80.0478 147.64 85.9117 152.285 93.6764C156.93 101.441 158.669 110.603 157.19 119.529C155.712 128.456 151.113 136.568 144.212 142.42C137.312 148.273 128.558 151.486 119.51 151.488L119.51 151.488ZM119.51 76.5948C113.716 76.5778 108.001 77.9484 102.845 80.5921C98.3379 82.8883 94.3542 86.0915 91.1439 90.0006C87.9336 93.9097 85.5661 98.4403 84.19 103.308C82.8139 108.175 82.459 113.275 83.1474 118.286C83.8359 123.297 85.5528 128.112 88.1906 132.428C90.8283 136.745 94.3298 140.469 98.4753 143.367C102.621 146.266 107.321 148.276 112.28 149.272C117.24 150.268 122.351 150.228 127.294 149.154C132.237 148.08 136.905 145.996 141.004 143.033C142.986 141.603 144.819 139.977 146.475 138.179C151.318 132.939 154.527 126.401 155.711 119.365C156.895 112.33 156.001 105.101 153.139 98.5656C150.277 92.0299 145.572 86.4706 139.599 82.5683C133.626 78.666 126.645 76.5901 119.51 76.5948Z" fill="#F0F0F0"/>
<path d="M36.7459 79.3952C37.7944 79.5266 38.8012 79.8864 39.6956 80.449C40.5899 81.0117 41.35 81.7636 41.9223 82.6518C42.4947 83.5401 42.8653 84.543 43.0081 85.5899C43.1509 86.6368 43.0624 87.7023 42.7488 88.7114L55.4393 99.2822L50.8964 108.561L33.1847 93.3812C31.5245 92.7421 30.1564 91.5162 29.3396 89.9358C28.5229 88.3554 28.3142 86.5303 28.7532 84.8064C29.1921 83.0824 30.2483 81.5794 31.7214 80.582C33.1945 79.5847 34.9823 79.1624 36.746 79.3952L36.7459 79.3952Z" fill="#FFB6B6"/>
<path d="M155.269 123.478C155.015 120.742 153.962 115.824 153.07 114.005C150.325 106.821 132.591 100.917 130.21 100.156L129.606 93.4408L104.966 90.7896L101.84 99.3773L93.0029 102.693C92.4029 102.916 91.8599 103.27 91.4127 103.728C90.9656 104.187 90.6254 104.738 90.4165 105.344L82.4879 107.636L74.6641 109.897L47.4828 90.7446L46.1995 91.5834L37.6219 97.1805L36.2986 98.0442L71.4736 129.779L84.5399 126.713L94.366 124.402L95.2046 127.807L93.0329 139.77C99.3251 146.064 107.654 149.911 116.526 150.62C125.398 151.329 134.232 148.854 141.444 143.639L147.026 138.686C150.916 134.48 153.788 129.435 155.419 123.942L155.269 123.478Z" fill="#E4E4E4"/>
<path d="M125.028 85.2975C134.329 82.2178 139.373 72.181 136.293 62.8795C133.214 53.578 123.177 48.5342 113.875 51.6138C104.574 54.6934 99.53 64.7303 102.61 74.0318C105.689 83.3333 115.726 88.3771 125.028 85.2975Z" fill="#FFB6B6"/>
<path d="M105.438 48.2306C107.163 45.7676 109.751 44.0435 112.689 43.4011C115.593 42.8037 118.616 43.3582 121.119 44.9475C123.841 43.8509 126.776 43.1234 129.66 43.4933C132.543 43.8631 135.37 45.4738 136.704 48.1273C136.985 48.8147 137.325 49.4761 137.722 50.1038C138.897 51.6721 141.082 51.8756 143.011 51.9509C142.036 52.5198 141.06 53.0887 140.084 53.6575C141.057 54.1106 142.029 54.5636 143.001 55.0167C141.678 55.5219 140.355 56.027 139.031 56.5322C142.111 59.2395 142.856 64.0576 141.69 68.0971C140.586 71.9216 138.055 75.1411 135.228 77.8974C134.676 75.8407 135.283 73.611 135.687 71.4817C136.114 69.2319 136.182 66.6012 134.607 65.0127C133.544 63.9413 131.985 63.6176 130.516 63.3576C123.102 62.0464 115.619 61.158 108.104 60.6965C107.098 60.5576 106.074 60.6622 105.117 61.0016C103.288 61.8142 102.554 64.046 102.024 66.0249C101.77 62.5514 101.973 59.0596 102.627 55.6389C103.128 53.0208 103.918 50.4003 105.438 48.2306Z" fill="#2F2E41"/>
<path d="M128.497 169.484H107.527C106.799 169.484 106.1 169.194 105.585 168.679C105.07 168.164 104.781 167.466 104.781 166.738C104.781 166.009 105.07 165.311 105.585 164.796C106.1 164.281 106.799 163.992 107.527 163.992H128.497C129.226 163.992 129.924 164.281 130.439 164.796C130.954 165.311 131.243 166.009 131.243 166.738C131.243 167.466 130.954 168.164 130.439 168.679C129.924 169.194 129.226 169.484 128.497 169.484Z" fill="#A87FF3"/>
<path d="M59.6862 22.5305H2.00606C1.47453 22.5297 0.965058 22.3179 0.589512 21.9418C0.213965 21.5656 0.0030365 21.0558 0.0030365 20.5243C0.0030365 19.9928 0.213965 19.483 0.589512 19.1069C0.965058 18.7307 1.47453 18.519 2.00606 18.5182H59.6862C60.2183 18.5182 60.7285 18.7295 61.1048 19.1057C61.481 19.482 61.6924 19.9923 61.6924 20.5243C61.6924 21.0564 61.481 21.5667 61.1048 21.9429C60.7285 22.3191 60.2183 22.5305 59.6862 22.5305Z" fill="#A87FF3"/>
<path d="M92.9888 35.3438H2.00605C1.47401 35.3438 0.963765 35.1325 0.587557 34.7562C0.211349 34.38 0 33.8698 0 33.3377C0 32.8057 0.211349 32.2955 0.587557 31.9193C0.963765 31.543 1.47401 31.3317 2.00605 31.3317H92.9888C93.5209 31.3317 94.0311 31.543 94.4073 31.9193C94.7835 32.2955 94.9949 32.8057 94.9949 33.3377C94.9949 33.8698 94.7835 34.38 94.4073 34.7562C94.0311 35.1325 93.5209 35.3438 92.9888 35.3438Z" fill="#A87FF3"/>
<path d="M75.5048 47.4152H2.00607C1.47403 47.4152 0.96378 47.2039 0.587572 46.8277C0.211365 46.4515 1.52588e-05 45.9412 1.52588e-05 45.4092C1.52588e-05 44.8771 0.211365 44.3669 0.587572 43.9907C0.96378 43.6145 1.47403 43.4031 2.00607 43.4031H75.5048C76.0369 43.4031 76.5471 43.6145 76.9233 43.9907C77.2995 44.3669 77.5109 44.8771 77.5109 45.4092C77.5109 45.9412 77.2995 46.4515 76.9233 46.8277C76.5471 47.2039 76.0369 47.4152 75.5048 47.4152Z" fill="#CACACA"/>
<path d="M43.4515 59.4423H2.00607C1.47403 59.4423 0.96378 59.2309 0.587572 58.8547C0.211365 58.4785 1.52588e-05 57.9683 1.52588e-05 57.4362C1.52588e-05 56.9042 0.211365 56.3939 0.587572 56.0177C0.96378 55.6415 1.47403 55.4302 2.00607 55.4302H43.4515C43.9835 55.4302 44.4938 55.6415 44.87 56.0177C45.2462 56.3939 45.4575 56.9042 45.4575 57.4362C45.4575 57.9683 45.2462 58.4785 44.87 58.8547C44.4938 59.2309 43.9835 59.4423 43.4515 59.4423Z" fill="#CACACA"/>
<path d="M66.3468 71.4684H2.00603C1.47454 71.4675 0.965112 71.2558 0.589588 70.8797C0.214064 70.5036 0.00314331 69.9938 0.00314331 69.4623C0.00314331 68.9308 0.214064 68.421 0.589588 68.0449C0.965112 67.6688 1.47454 67.4571 2.00603 67.4562H66.3468C66.8783 67.4571 67.3878 67.6688 67.7633 68.0449C68.1388 68.421 68.3497 68.9308 68.3497 69.4623C68.3497 69.9938 68.1388 70.5036 67.7633 70.8797C67.3878 71.2558 66.8783 71.4675 66.3468 71.4684Z" fill="#CACACA"/>
<path d="M247.677 267.732L242.507 267.731L240.048 247.791L247.678 247.791L247.677 267.732Z" fill="#9F616A"/>
<path d="M249.711 274.886L229.974 274.886V274.636C229.974 272.599 230.783 270.645 232.224 269.204C233.665 267.763 235.619 266.954 237.656 266.954H237.657L241.262 264.219L247.988 266.954L249.711 266.954L249.711 274.886Z" fill="#2F2E41"/>
<path d="M244.665 174.015L242.385 146.215L240.594 135.781L250.622 133.566L253.95 147.851L251.051 174.787C251.636 175.503 251.993 176.379 252.076 177.3C252.16 178.221 251.966 179.146 251.52 179.957C251.074 180.767 250.396 181.425 249.573 181.847C248.749 182.269 247.819 182.435 246.901 182.324C245.982 182.213 245.118 181.83 244.419 181.225C243.72 180.619 243.218 179.818 242.978 178.925C242.737 178.031 242.77 177.087 243.07 176.212C243.371 175.337 243.926 174.572 244.665 174.015H244.665Z" fill="#9F616A"/>
<path d="M220.216 267.732L215.047 267.731L212.587 247.791L220.217 247.791L220.216 267.732Z" fill="#9F616A"/>
<path d="M211.943 180.317L209.651 184.282C209.651 184.282 207.133 184.97 207.956 193.178C208.779 201.387 208.814 250.022 212.798 256.007L213.519 261.146L221.041 261.865L221.231 257.305L230.201 193.953C230.201 193.953 235.484 256.144 239.854 257.666L241.432 262.848L248.327 262.851L247.919 256.745L248.364 179.675L211.943 180.317Z" fill="#2F2E41"/>
<path d="M209.423 183.98L209.265 183.939C213.995 166.246 212.63 143.335 209.29 118.733L209.29 118.632L221.365 107.572H231.85L242.244 114.28C248.964 117.639 250.491 124.754 250.506 124.826L250.516 124.877L246.399 139.248L249.5 180.811L249.504 180.859L249.486 180.904C248.482 183.449 245.793 183.087 242.678 182.667C239.569 182.247 228.111 186.081 224.597 186.081C217.731 186.081 209.914 184.106 209.423 183.98Z" fill="#E4E4E4"/>
<path d="M240.068 119.881L244.572 117.922L250.506 125.198L255.317 148.514L238.84 146.017L240.068 119.881Z" fill="#E4E4E4"/>
<path d="M170.787 162.876L191.378 144.06L198.534 136.258L206.423 142.834L197.161 154.208L174.084 168.398C173.875 169.299 173.402 170.117 172.724 170.747C172.047 171.377 171.197 171.79 170.283 171.933C169.369 172.076 168.433 171.943 167.596 171.55C166.758 171.157 166.058 170.523 165.583 169.729C165.109 168.934 164.883 168.017 164.934 167.093C164.986 166.169 165.312 165.282 165.871 164.546C166.431 163.809 167.198 163.256 168.073 162.959C168.949 162.661 169.894 162.632 170.787 162.876L170.787 162.876Z" fill="#9F616A"/>
<path d="M190.929 144.264L196.632 136.858C196.68 136.752 201.411 126.179 205.513 121.584C209.72 116.872 213.032 119.282 213.065 119.308L213.147 119.37L213.376 136.773L197.585 155.642L190.929 144.264Z" fill="#E4E4E4"/>
<path d="M235.055 97.1547C235.905 91.9149 232.347 86.9778 227.107 86.1275C221.867 85.2772 216.93 88.8356 216.08 94.0755C215.23 99.3153 218.788 104.252 224.028 105.103C229.268 105.953 234.205 102.395 235.055 97.1547Z" fill="#9F616A"/>
<path d="M216.78 94.1882C216.78 94.1882 216.703 90.8092 216.276 89.3141C215.849 87.8189 214.995 86.5374 215.422 86.5374C215.849 86.5374 216.063 85.4694 216.063 85.4694C216.063 85.4694 216.49 85.2558 216.703 85.4694C216.917 85.683 217.131 83.9743 217.131 83.9743C217.131 83.9743 217.344 83.3335 217.558 83.7607C217.771 84.1879 217.771 83.9743 217.985 83.3335C218.198 82.6927 219.267 82.2655 219.267 82.2655C219.267 82.2655 223.325 82.4791 223.966 81.6247C224.606 80.7704 231.868 81.4111 233.364 82.4791C234.859 83.547 241.48 87.3917 240.412 90.5956C239.344 93.7995 236.27 101.176 235.5 101.916C234.281 103.086 233.438 103.507 227.674 104.654C226.545 104.879 220.787 101.196 220.787 100.555C220.787 99.9147 221.482 97.8826 220.366 97.6037C218.679 97.182 218.489 99.3145 218.062 98.6737C217.635 98.0329 216.78 94.1882 216.78 94.1882Z" fill="#2F2E41"/>
<path d="M222.25 274.886L202.513 274.886V274.636C202.513 272.599 203.322 270.645 204.763 269.204C206.204 267.763 208.158 266.954 210.195 266.954H210.196L213.801 264.219L220.528 266.954L222.251 266.954L222.25 274.886Z" fill="#2F2E41"/>
<path d="M324.848 275.263H1.66163C1.50396 275.263 1.35276 275.2 1.24127 275.089C1.12978 274.977 1.06714 274.826 1.06714 274.668C1.06714 274.511 1.12978 274.36 1.24127 274.248C1.35276 274.137 1.50396 274.074 1.66163 274.074H324.848C325.006 274.074 325.157 274.137 325.268 274.248C325.38 274.36 325.443 274.511 325.443 274.668C325.443 274.826 325.38 274.977 325.268 275.089C325.157 275.2 325.006 275.263 324.848 275.263Z" fill="#CACACA"/>
</g>
<defs>
<clipPath id="clip0_9_2">
<rect width="325.443" height="275.263" fill="white"/>
</clipPath>
</defs>
</svg>
